<?xml version="1.0" standalone="no"?>
<!DOCTYPE svg PUBLIC "-//W3C//DTD SVG 20010904//EN"
 "http://www.w3.org/TR/2001/REC-SVG-20010904/DTD/svg10.dtd">
<svg version="1.0" xmlns="http://www.w3.org/2000/svg"
 width="992.000000pt" height="992.000000pt" viewBox="0 0 992.000000 992.000000"
 preserveAspectRatio="xMidYMid meet">
<metadata>
Created by potrace 1.11, written by Peter Selinger 2001-2013
</metadata>
<g transform="translate(0.000000,992.000000) scale(0.100000,-0.100000)"
fill="#000000" stroke="none">
<path d="M0 4955 l0 -4605 4960 0 4960 0 0 4605 0 4605 -4960 0 -4960 0 0
-4605z m9120 -320 l0 -3325 -4125 0 -4125 0 1 33 c0 17 3 26 6 20 9 -23 43
-15 43 9 0 21 0 21 -15 2 -13 -17 -14 -15 -14 36 0 51 1 53 14 36 15 -19 15
-19 15 2 0 24 -34 32 -43 10 -3 -7 -6 1453 -6 3245 l-1 3257 4125 0 4125 0 0
-3325z"/>
<path d="M2353 7786 c-57 -27 -130 -97 -168 -162 -13 -23 -36 -75 -50 -117
l-25 -76 0 -921 0 -921 25 -76 c14 -42 37 -94 50 -117 38 -65 111 -135 168
-162 l52 -24 2590 0 2590 0 50 24 c107 50 185 152 231 301 18 57 19 111 19
975 0 864 -1 918 -19 975 -46 149 -124 251 -231 301 l-50 24 -2590 0 -2590 0
-52 -24z m5268 -32 c122 -57 204 -187 229 -361 14 -101 14 -1665 0 -1766 -25
-174 -107 -304 -229 -361 l-46 -21 -2550 -3 c-1759 -2 -2566 1 -2600 8 -145
31 -251 177 -285 390 -13 88 -13 1652 0 1740 32 205 133 349 270 387 35 9 616
11 2605 10 l2560 -2 46 -21z"/>
<path d="M2281 7483 l1 -38 9 33 c18 61 29 33 29 -72 0 -91 -2 -105 -17 -109
-10 -3 2 -5 27 -5 25 0 37 2 28 5 -16 4 -18 18 -18 109 0 100 12 135 25 75 3
-17 13 -31 22 -33 21 -4 55 -142 42 -175 -9 -25 -25 -30 -31 -11 -2 6 -9 8
-16 4 -16 -10 -3 -36 18 -36 10 0 23 6 29 14 13 16 50 151 51 185 0 17 4 22
16 17 9 -3 18 -6 20 -6 2 0 4 -45 4 -99 0 -86 -2 -100 -17 -104 -10 -3 5 -5
32 -4 28 0 40 2 28 4 -31 6 -33 53 -3 53 25 0 40 35 40 91 0 65 -11 76 -77 77
l-58 0 -2 -35 c-3 -63 -15 -72 -28 -23 -10 39 -9 46 4 52 10 4 1 7 -21 7 -35
1 -38 3 -38 31 0 29 -1 30 -50 30 l-50 0 1 -37z m293 -49 c9 -23 7 -107 -3
-123 -16 -25 -31 0 -31 54 0 56 7 85 20 85 4 0 11 -7 14 -16z"/>
<path d="M2830 7510 c-10 -6 -11 -10 -2 -10 9 0 12 -27 12 -99 0 -70 -4 -101
-12 -104 -7 -3 3 -6 22 -6 23 0 30 2 22 8 -10 6 -13 29 -12 77 4 144 2 155
-30 134z"/>
<path d="M3705 7510 c-17 -7 -17 -9 -2 -9 15 -1 17 -13 17 -105 l0 -103 27 1
c19 1 32 9 40 26 26 52 10 140 -27 140 -16 0 -20 7 -20 30 0 32 -3 34 -35 20z
m75 -127 c0 -48 -15 -87 -31 -78 -10 7 -13 128 -2 138 14 15 33 -18 33 -60z"/>
<path d="M4930 7510 c-17 -5 -19 -8 -7 -9 15 -1 17 -13 17 -100 0 -95 -1 -100
-22 -104 -13 -2 4 -4 37 -4 33 0 50 2 38 4 -22 4 -23 8 -23 114 0 60 -3 109
-7 108 -5 -1 -19 -5 -33 -9z"/>
<path d="M4067 7504 c-8 -8 1 -24 14 -24 5 0 9 7 9 15 0 15 -12 20 -23 9z"/>
<path d="M5270 7495 c0 -8 7 -15 15 -15 8 0 15 7 15 15 0 8 -7 15 -15 15 -8 0
-15 -7 -15 -15z"/>
<path d="M4387 7483 c-5 -12 -16 -24 -25 -26 -16 -4 -16 -5 1 -6 14 -1 17 -11
17 -69 0 -70 10 -92 42 -92 19 0 38 29 37 57 0 12 -6 6 -15 -14 -26 -60 -44
-37 -44 58 0 55 2 59 23 59 61 -1 67 -7 67 -80 0 -57 -3 -69 -17 -73 -10 -3 5
-5 32 -4 28 0 39 2 26 4 -23 5 -23 8 -19 68 7 76 15 93 32 69 10 -13 15 -14
21 -5 13 21 -12 37 -35 23 -11 -7 -20 -8 -20 -3 0 6 -10 9 -22 9 -65 -4 -87 2
-90 25 l-4 22 -7 -22z"/>
<path d="M3400 7476 c0 -8 -8 -17 -17 -19 -17 -4 -17 -5 -1 -6 14 -1 18 -14
20 -78 l3 -78 30 0 c27 0 30 3 32 35 1 34 1 34 -5 5 -4 -17 -14 -30 -22 -30
-12 0 -16 16 -18 72 -3 72 -3 72 25 76 l28 4 -27 2 c-18 0 -28 7 -28 16 0 8
-4 15 -10 15 -5 0 -10 -6 -10 -14z"/>
<path d="M5150 7476 c0 -8 -8 -17 -17 -19 -17 -4 -17 -5 -1 -6 14 -1 18 -14
20 -78 l3 -78 30 0 c27 0 30 3 32 35 1 34 1 34 -5 5 -4 -17 -14 -30 -22 -30
-12 0 -16 16 -18 72 -3 72 -3 72 25 76 l28 4 -27 2 c-18 0 -28 7 -28 16 0 8
-4 15 -10 15 -5 0 -10 -6 -10 -14z"/>
<path d="M2629 7438 c-7 -13 -12 -41 -12 -63 0 -22 5 -50 12 -63 14 -26 56
-30 65 -6 10 26 6 30 -9 10 -20 -27 -45 -4 -45 40 0 32 2 34 35 34 19 0 35 2
35 4 0 1 -5 17 -11 35 -13 38 -52 43 -70 9z m49 -16 c3 -17 -2 -22 -17 -22
-14 0 -21 6 -21 18 0 38 33 41 38 4z"/>
<path d="M2878 7453 c8 -3 12 -30 12 -84 0 -75 1 -79 23 -78 12 0 16 3 10 6
-9 3 -13 30 -13 84 0 75 -1 79 -22 78 -13 0 -17 -3 -10 -6z"/>
<path d="M2959 7444 c-7 -9 -13 -40 -13 -69 0 -55 15 -85 43 -85 19 0 41 18
41 34 0 5 -8 2 -19 -8 -22 -20 -37 -7 -47 42 -6 31 -6 32 30 32 31 0 36 3 36
23 0 44 -44 63 -71 31z m49 -22 c3 -18 -2 -22 -23 -22 -14 0 -24 3 -22 8 2 4
7 15 10 25 9 24 31 17 35 -11z"/>
<path d="M3055 7450 c-11 -5 -14 -9 -7 -9 8 -1 12 -22 12 -70 0 -46 -4 -71
-12 -74 -7 -3 7 -5 32 -5 25 0 37 2 27 5 -16 4 -19 14 -17 71 4 101 5 99 -35
82z"/>
<path d="M3106 7452 c-2 -4 4 -13 14 -20 20 -12 36 0 25 18 -7 12 -32 13 -39
2z"/>
<path d="M3176 7438 c-33 -47 -11 -148 33 -148 18 0 41 18 41 34 0 5 -9 1 -20
-9 -11 -10 -22 -16 -24 -14 -12 14 -26 51 -26 68 0 17 6 21 35 21 30 0 35 3
35 23 0 47 -47 63 -74 25z m52 -16 c3 -18 -2 -22 -22 -22 -29 0 -31 3 -15 31
13 25 33 20 37 -9z"/>
<path d="M3500 7441 c-5 -11 -10 -41 -10 -66 0 -55 14 -85 40 -85 27 0 50 38
50 85 0 70 -54 114 -80 66z m60 -64 c0 -52 -16 -82 -36 -66 -18 14 -19 110 -2
127 19 19 38 -13 38 -61z"/>
<path d="M3832 7435 c-16 -35 -15 -106 3 -128 18 -24 59 -19 63 8 l4 20 -16
-20 c-16 -20 -16 -20 -31 -1 -8 11 -15 32 -15 48 0 25 3 28 35 28 25 0 35 4
35 16 0 53 -58 74 -78 29z m52 -1 c10 -27 7 -34 -19 -34 -27 0 -33 18 -13 38
16 16 25 15 32 -4z"/>
<path d="M3939 7439 c-6 -12 -9 -33 -6 -47 3 -14 0 -34 -6 -44 -9 -13 -9 -20
0 -29 9 -9 9 -16 0 -30 -17 -27 2 -53 41 -57 23 -2 34 2 42 18 20 36 5 68 -35
76 -40 7 -47 24 -11 24 33 0 49 23 44 65 -2 19 1 37 7 39 5 2 -7 5 -27 5 -28
1 -40 -4 -49 -20z m46 -34 c0 -21 -5 -40 -11 -42 -15 -5 -25 35 -17 65 9 35
28 20 28 -23z m13 -131 c3 -23 -18 -37 -43 -28 -16 6 -20 35 -8 48 14 14 48 1
51 -20z"/>
<path d="M4055 7450 c-17 -7 -17 -9 -2 -9 14 -1 17 -11 17 -70 0 -64 -2 -70
-22 -74 -13 -2 18 -4 67 -4 50 -1 82 1 73 4 -15 4 -18 16 -18 68 0 41 5 66 14
74 19 16 26 -6 26 -85 0 -60 1 -64 23 -63 12 0 16 3 10 6 -9 3 -13 27 -13 71
0 37 -4 72 -8 79 -8 13 -80 15 -88 2 -3 -5 0 -9 5 -9 7 0 11 -27 11 -70 l0
-70 -30 0 -30 0 0 80 c0 44 -3 80 -7 79 -5 0 -17 -4 -28 -9z"/>
<path d="M4590 7441 c-14 -27 -13 -54 3 -48 6 2 12 15 12 28 0 37 29 31 33 -8
2 -25 -1 -33 -18 -38 -23 -7 -39 -40 -33 -66 4 -13 18 -16 81 -17 42 0 71 2
65 5 -14 5 -18 107 -7 137 14 37 24 11 24 -64 0 -76 1 -80 23 -80 14 0 18 3
10 8 -7 4 -13 38 -15 82 l-3 75 -37 2 c-21 1 -40 -2 -43 -7 -4 -6 -1 -10 4
-10 7 0 11 -27 11 -69 0 -64 -2 -70 -20 -68 -18 1 -20 8 -20 63 0 34 -3 69 -6
78 -9 22 -51 20 -64 -3z m40 -135 c-8 -8 -13 -7 -20 4 -13 21 -12 26 8 46 16
17 17 16 20 -10 2 -16 -1 -33 -8 -40z"/>
<path d="M4820 7440 c-12 -23 -4 -45 29 -74 21 -19 27 -46 14 -59 -10 -11 -33
13 -33 34 0 11 -4 19 -10 19 -5 0 -10 -17 -10 -37 0 -25 3 -33 9 -24 6 9 11
10 15 2 11 -16 43 -13 50 5 11 30 6 51 -19 74 -14 13 -25 34 -25 48 0 29 24
25 28 -6 5 -32 22 -27 22 6 0 24 -4 28 -30 30 -20 2 -32 -4 -40 -18z"/>
<path d="M5032 7448 c-15 -15 -16 -58 -2 -58 6 0 10 11 10 24 0 36 18 41 32
11 11 -25 10 -29 -21 -54 -24 -20 -32 -34 -29 -52 3 -21 9 -24 43 -26 l41 -2
-4 67 c-3 37 -8 75 -14 85 -10 20 -39 22 -56 5z m48 -100 c0 -30 -15 -52 -29
-44 -15 9 -14 39 1 54 18 18 28 14 28 -10z"/>
<path d="M5255 7450 c-17 -7 -17 -9 -2 -9 14 -1 17 -11 17 -70 0 -64 -2 -70
-22 -74 -13 -2 2 -4 32 -4 30 -1 47 1 38 4 -15 4 -18 17 -18 84 0 82 -3 87
-45 69z"/>
<path d="M5360 7441 c-5 -11 -10 -41 -10 -66 0 -55 14 -85 40 -85 27 0 50 38
50 85 0 70 -54 114 -80 66z m50 -10 c25 -47 -3 -161 -30 -121 -5 8 -10 36 -10
62 0 74 18 100 40 59z"/>
<path d="M5450 7451 c0 -6 5 -11 10 -11 15 0 13 -137 -2 -143 -7 -3 3 -6 22
-6 22 0 30 2 22 8 -16 9 -13 141 3 141 6 0 11 -34 13 -75 3 -70 4 -75 25 -75
14 0 18 3 10 8 -7 4 -13 38 -15 82 l-3 75 -42 3 c-26 2 -43 -1 -43 -7z"/>
<path d="M5600 7305 c0 -9 5 -15 11 -13 6 2 11 8 11 13 0 5 -5 11 -11 13 -6 2
-11 -4 -11 -13z"/>
<path d="M5705 7311 c-7 -12 12 -24 25 -16 11 7 4 25 -10 25 -5 0 -11 -4 -15
-9z"/>
<path d="M5817 7314 c-8 -8 1 -24 14 -24 5 0 9 7 9 15 0 15 -12 20 -23 9z"/>
<path d="M7818 5290 c-15 -22 -24 -40 -20 -40 4 0 13 9 20 21 7 12 16 18 19
15 3 -3 0 -12 -7 -21 -7 -8 -8 -15 -4 -15 5 0 15 9 21 19 10 15 10 20 0 24 -9
3 -9 8 2 20 7 10 10 17 5 17 -5 -1 -21 -19 -36 -40z"/>
<path d="M3912 5098 c-18 -18 -17 -461 2 -477 10 -8 303 -10 1092 -9 l1079 3
0 245 0 245 -1080 3 c-833 2 -1084 -1 -1093 -10z"/>
<path d="M2353 4486 c-57 -27 -130 -97 -168 -162 -13 -23 -36 -75 -50 -117
l-25 -76 0 -921 0 -921 25 -76 c14 -42 37 -94 50 -117 38 -65 111 -135 168
-162 l52 -24 2590 0 2590 0 50 24 c107 50 185 152 231 301 18 57 19 111 19
975 0 864 -1 918 -19 975 -46 149 -124 251 -231 301 l-50 24 -2590 0 -2590 0
-52 -24z"/>
<path d="M7818 1990 c-15 -22 -24 -40 -20 -40 4 0 13 9 20 21 7 12 16 18 19
15 3 -3 0 -12 -7 -21 -7 -8 -8 -15 -4 -15 5 0 15 9 21 19 10 15 10 20 0 24 -9
3 -9 8 2 20 7 10 10 17 5 17 -5 -1 -21 -19 -36 -40z"/>
<path d="M1245 1459 c4 -6 -1 -16 -11 -24 -13 -9 -21 -10 -25 -3 -4 6 -14 8
-24 5 -23 -9 -17 -80 8 -85 9 -2 17 1 17 7 0 6 -5 10 -12 9 -6 -2 -14 5 -16
15 -2 12 3 17 17 17 13 0 21 -8 23 -22 2 -15 11 -24 26 -26 21 -3 22 0 22 57
0 49 -3 61 -16 61 -8 0 -12 -5 -9 -11z m-45 -39 c0 -5 -5 -10 -11 -10 -5 0 -7
5 -4 10 3 6 8 10 11 10 2 0 4 -4 4 -10z m47 -42 c-2 -13 -4 -5 -4 17 -1 22 1
32 4 23 2 -10 2 -28 0 -40z"/>
<path d="M1338 1409 c4 -55 6 -60 25 -57 17 2 23 12 27 43 6 45 14 39 24 -17
6 -31 4 -38 -9 -38 -8 0 -15 -5 -15 -11 0 -6 7 -9 16 -7 10 2 23 26 34 61 l18
58 -36 -1 c-56 -3 -62 -1 -62 15 0 8 -6 15 -12 15 -10 0 -12 -17 -10 -61z m42
-14 c0 -13 -4 -27 -10 -30 -6 -4 -10 8 -10 30 0 22 4 34 10 30 6 -3 10 -17 10
-30z m60 25 c0 -5 -4 -10 -10 -10 -5 0 -10 5 -10 10 0 6 5 10 10 10 6 0 10 -4
10 -10z"/>
<path d="M1515 1410 l0 -60 143 0 c132 0 142 1 142 19 0 10 -7 24 -15 31 -8 7
-15 17 -15 22 0 6 7 5 15 -2 12 -10 15 -10 15 4 0 9 -8 16 -20 16 -24 0 -27
-32 -5 -50 17 -14 20 -30 5 -30 -5 0 -10 7 -10 15 0 8 -4 15 -10 15 -5 0 -10
-7 -10 -15 0 -8 -7 -15 -15 -15 -11 0 -15 11 -15 40 0 32 -4 40 -17 39 -11 0
-13 -3 -5 -6 6 -2 12 -20 12 -39 0 -27 -4 -34 -20 -34 -18 0 -20 7 -20 55 0
37 -4 55 -12 55 -9 0 -12 -16 -10 -55 4 -50 2 -55 -17 -55 -19 0 -21 6 -21 55
0 37 -4 55 -12 55 -9 0 -12 -16 -10 -55 3 -34 0 -55 -7 -55 -12 0 -25 63 -18
90 4 16 0 20 -21 20 -26 0 -27 -2 -27 -60z m32 18 c-3 -7 -5 -2 -5 12 0 14 2
19 5 13 2 -7 2 -19 0 -25z m4 -61 c-8 -8 -11 -3 -11 19 1 25 2 27 11 11 8 -14
8 -22 0 -30z"/>
<path d="M1710 1460 c0 -5 5 -10 11 -10 5 0 7 5 4 10 -3 6 -8 10 -11 10 -2 0
-4 -4 -4 -10z"/>
<path d="M1865 1410 c0 -58 1 -60 27 -60 14 0 29 6 31 13 4 10 6 10 6 0 1 -7
10 -13 20 -13 21 0 30 27 23 68 -5 24 -37 31 -45 10 -3 -7 -6 -1 -6 15 -1 23
-5 27 -28 27 -27 0 -28 -1 -28 -60z m35 30 c0 -11 -4 -20 -10 -20 -5 0 -10 9
-10 20 0 11 5 20 10 20 6 0 10 -9 10 -20z m60 -45 c0 -19 -4 -35 -10 -35 -5 0
-10 16 -10 35 0 19 5 35 10 35 6 0 10 -16 10 -35z m-60 -10 c0 -14 -4 -25 -10
-25 -5 0 -10 11 -10 25 0 14 5 25 10 25 6 0 10 -11 10 -25z"/>
<path d="M2158 1409 c4 -55 6 -60 25 -57 17 2 23 11 25 41 2 26 -1 39 -12 43
-9 3 -16 12 -16 20 0 8 -6 14 -12 14 -10 0 -12 -17 -10 -61z m29 -31 c-2 -13
-4 -5 -4 17 -1 22 1 32 4 23 2 -10 2 -28 0 -40z"/>
<path d="M2387 1433 c3 -32 2 -35 -7 -15 -11 26 -35 29 -49 5 -10 -17 -10 -17
-11 0 0 24 -37 22 -45 -4 -11 -33 3 -69 25 -69 12 0 20 7 20 18 1 15 2 15 10
1 7 -12 25 -17 64 -18 l54 -1 -19 37 c-11 21 -19 48 -19 60 0 13 -6 23 -13 23
-9 0 -12 -12 -10 -37z m-77 -38 c0 -19 -4 -35 -10 -35 -5 0 -10 16 -10 35 0
19 5 35 10 35 6 0 10 -16 10 -35z m60 0 c0 -13 -4 -27 -10 -30 -6 -4 -10 8
-10 30 0 22 4 34 10 30 6 -3 10 -17 10 -30z m17 -27 c-3 -8 -6 -5 -6 6 -1 11
2 17 5 13 3 -3 4 -12 1 -19z"/>
<path d="M1114 1443 c-11 -4 -3 -77 9 -90 11 -11 37 6 36 24 -1 17 -2 17 -6 1
-8 -31 -23 -20 -23 16 0 25 5 36 18 38 15 3 14 4 -3 9 -11 3 -25 4 -31 2z"/>
<path d="M935 1395 c0 -34 4 -45 15 -45 12 0 15 9 12 40 -3 34 -2 39 12 34 9
-3 16 -1 16 5 0 6 -12 11 -27 11 -26 0 -28 -3 -28 -45z"/>
<path d="M996 1424 c-18 -47 8 -94 37 -65 9 9 8 11 -5 6 -14 -6 -18 -2 -18 14
0 12 7 22 15 22 35 3 40 5 38 17 -2 7 1 12 6 12 5 0 9 -16 9 -35 0 -19 -4 -32
-9 -29 -5 3 -7 10 -4 15 4 5 1 9 -4 9 -6 0 -11 -9 -11 -20 0 -14 7 -20 24 -20
23 0 24 3 19 43 -7 52 -9 54 -33 39 -12 -7 -21 -8 -25 -2 -9 15 -32 12 -39 -6z
m34 -4 c0 -5 -4 -10 -10 -10 -5 0 -10 5 -10 10 0 6 5 10 10 10 6 0 10 -4 10
-10z"/>
<path d="M1985 1395 c0 -34 4 -45 15 -45 12 0 15 9 12 40 -3 34 -2 39 12 34
10 -4 16 -18 16 -40 l0 -34 56 0 c47 0 55 3 50 16 -3 9 -6 29 -6 46 0 23 -4
29 -17 26 -10 -2 -19 -12 -21 -22 -3 -11 0 -16 7 -11 6 3 9 11 6 16 -4 5 -2 9
3 9 6 0 10 -16 10 -35 0 -19 -4 -32 -9 -29 -5 3 -7 10 -4 15 4 5 1 9 -4 9 -6
0 -12 -8 -12 -17 -1 -10 -5 0 -8 22 l-6 40 -50 3 -50 3 0 -46z m82 -17 c-2
-13 -4 -5 -4 17 -1 22 1 32 4 23 2 -10 2 -28 0 -40z"/>
<path d="M2215 1395 c0 -42 2 -45 25 -44 14 0 19 3 13 6 -19 7 -17 63 2 63 8
0 15 5 15 10 0 6 -12 10 -27 10 -26 0 -28 -3 -28 -45z"/>
<path d="M2420 1430 c0 -5 7 -7 15 -4 8 4 15 8 15 10 0 2 -7 4 -15 4 -8 0 -15
-4 -15 -10z"/>
</g>
</svg>
